<svg version="1.1" id="Layer_1" xmlns="http://www.w3.org/2000/svg" xmlns:xlink="http://www.w3.org/1999/xlink" x="0px" y="0px"
	 width="64px" viewBox="0 0 512 512" enable-background="new 0 0 512 512" xml:space="preserve">
<path fill="#242020" opacity="1.000000" stroke="none"
	d="
M1.000000,179.000000
	C1.000000,119.333336 1.000000,60.166668 1.000000,1.000000
	C171.666672,1.000000 342.333344,1.000000 513.000000,1.000000
	C513.000000,171.666672 513.000000,342.333344 513.000000,513.000000
	C342.333344,513.000000 171.666672,513.000000 1.000000,513.000000
	C1.000000,401.833344 1.000000,290.666656 1.000000,179.000000
M373.394409,138.105606
	C356.939819,121.637360 340.485229,105.169121 324.621277,89.292015
	C308.582458,105.170486 293.032654,120.564819 277.929901,135.516602
	C319.337341,176.927811 360.983521,218.577789 402.219208,259.817230
	C417.274384,244.737595 432.737946,229.248917 448.632385,213.328674
	C424.022614,188.723923 398.958435,163.664856 373.394409,138.105606
M159.191162,144.307373
	C198.184631,183.276688 237.178101,222.246017 275.917175,260.961090
	C291.707550,245.174850 307.232391,229.654053 322.441742,214.448685
	C280.884094,172.915131 239.091385,131.146652 197.933624,90.012756
	C182.762497,105.185692 167.183823,120.766228 151.069366,136.882599
	C153.276199,138.887634 155.983459,141.347336 159.191162,144.307373
M143.948059,160.551971
	C119.976791,136.572067 96.005524,112.592155 72.428284,89.006432
	C56.406170,105.034050 41.002048,120.443459 26.184023,135.266571
	C67.618896,176.690979 109.378540,218.440048 150.340973,259.392120
	C165.294739,244.383881 180.745224,228.877121 196.465851,213.099228
	C179.519592,196.143402 161.983795,178.597717 143.948059,160.551971
M238.674683,299.174896
	C245.952988,291.962311 253.231293,284.749725 260.159424,277.884155
	C244.091782,261.813354 228.595306,246.313812 213.964828,231.680450
	C172.394241,273.252686 130.559128,315.089447 89.292244,356.357971
	C104.242958,371.294891 119.736771,386.774445 135.358978,402.382263
	C169.396912,368.380219 203.785812,334.027588 238.674683,299.174896
M313.636017,350.136200
	C337.852325,325.920288 362.068665,301.704346 385.689545,278.083862
	C369.710968,262.111725 354.316528,246.723480 339.610870,232.023758
	C298.303711,273.348663 256.564789,315.105469 215.051346,356.636749
	C229.910019,371.472321 245.337662,386.876007 261.146576,402.660339
	C278.305450,385.489716 295.720520,368.062775 313.636017,350.136200
M490.830505,291.345184
	C490.830353,280.684967 490.887207,270.024170 490.772003,259.365204
	C490.753571,257.657837 490.503754,255.443634 489.446564,254.338150
	C481.648804,246.184265 473.618958,238.252380 465.941315,230.531342
	C423.833374,272.661621 382.080170,314.436981 340.665375,355.873749
	C355.958313,371.134247 371.552917,386.695740 387.700409,402.808929
	C388.403015,401.906342 389.301971,400.462158 390.472870,399.289520
	C422.366028,367.348969 454.239075,335.387878 486.274750,303.590698
	C489.616364,300.273956 491.629730,296.999725 490.830505,291.345184
M111.298172,411.201874
	C98.251175,398.145630 85.204170,385.089355 72.516083,372.392273
	C56.658150,388.281189 41.186031,403.783569 25.484201,419.516083
	C25.834232,419.936768 26.497511,420.873901 27.297274,421.674713
	C49.428917,443.836578 71.520897,466.038879 93.822021,488.029022
	C95.554375,489.737213 98.763596,490.710693 101.295250,490.727997
	C128.949127,490.916504 156.604752,490.850739 184.259903,490.835388
	C185.855743,490.834503 187.451508,490.672028 190.575760,490.501160
	C163.694168,463.612579 137.745834,437.657532 111.298172,411.201874
M397.500000,490.851654
	C411.976288,490.851654 426.452576,490.851654 440.723511,490.851654
	C401.145325,451.260590 362.018616,412.121155 323.843323,373.933441
	C308.846649,388.931366 293.381165,404.398132 277.759766,420.020844
	C277.724609,419.977203 278.185883,420.671234 278.763306,421.249268
	C301.121002,443.629181 323.448395,466.039886 345.946289,488.278137
	C347.487122,489.801147 350.305298,490.704315 352.546570,490.737366
	C367.195068,490.953613 381.848297,490.850250 397.500000,490.851654
M212.514297,480.985931
	C213.810318,482.281616 215.295364,483.438416 216.367828,484.898315
	C219.939774,489.760559 224.541534,491.055817 230.562149,490.978455
	C257.046295,490.638092 283.537292,490.831512 310.025787,490.831512
	C311.777802,490.831512 313.529816,490.831512 315.036713,490.831512
	C275.563171,451.404358 236.273804,412.161163 197.610504,373.543304
	C182.716278,388.436462 167.126297,404.025360 151.320084,419.830444
	C171.267059,439.764679 191.640671,460.125275 212.514297,480.985931
M26.263519,385.584625
	C62.237480,349.580322 98.211441,313.576019 134.412170,277.344727
	C132.922440,275.690277 131.882553,274.426941 130.731903,273.274170
	C117.674065,260.192200 104.486015,247.237167 91.607140,233.981659
	C88.307518,230.585541 86.418533,230.931839 83.287315,234.105499
	C64.575478,253.070953 45.724674,271.900787 26.766376,290.619995
	C24.009127,293.342468 23.075068,296.141663 23.089813,299.873199
	C23.197739,327.181976 23.146355,354.491333 23.151859,381.800537
	C23.152126,383.131287 23.076416,384.492889 23.361752,385.767242
	C23.420284,386.028656 24.937912,385.963379 26.263519,385.584625
M477.941162,28.492929
	C479.376709,27.012180 480.812256,25.531429 483.107361,23.164053
	C480.134766,23.164053 478.524963,23.164053 476.915161,23.164053
	C452.420502,23.164051 427.908539,23.700985 403.439270,22.912781
	C392.927124,22.574165 385.471161,25.369358 378.325348,33.229271
	C366.021820,46.762234 352.507050,59.193943 339.994049,71.598679
	C355.992920,87.614410 371.576508,103.214424 387.399841,119.054428
	C417.149780,89.294937 447.296814,59.138245 477.941162,28.492929
M321.486023,58.986065
	C333.058990,47.412895 344.631958,35.839729 356.816101,23.655363
	C354.984924,23.366488 354.361847,23.182541 353.738678,23.182192
	C324.583649,23.165842 295.428192,23.100491 266.274475,23.296055
	C264.120880,23.310501 261.511841,24.740273 259.906281,26.317858
	C245.408936,40.562527 231.083054,54.981823 216.727432,69.370407
	C215.718079,70.382088 214.872177,71.556847 214.379807,72.143768
	C230.125458,87.865356 245.528809,103.245155 261.398773,119.090851
	C281.000519,99.483315 300.993286,79.484673 321.486023,58.986065
M95.656372,80.843262
	C107.426453,92.612770 119.284393,104.296585 130.904953,116.211906
	C133.817688,119.198532 135.575974,119.108070 138.485153,116.179390
	C168.044937,86.421501 197.740143,56.798122 227.380585,27.120253
	C228.342407,26.157217 229.124573,25.014734 230.380325,23.479223
	C228.724716,23.313766 227.919846,23.163328 227.114899,23.163002
	C198.319748,23.151308 169.524048,23.080679 140.730453,23.292233
	C138.421021,23.309200 135.619995,24.764189 133.905869,26.432802
	C122.218712,37.809647 110.809029,49.470833 99.203033,60.932133
	C95.429344,64.658783 91.336594,68.062340 87.389778,71.613670
	C87.156136,72.469658 86.922485,73.325645 86.688843,74.181633
	C89.511574,76.235535 92.334305,78.289429 95.656372,80.843262
M490.848206,188.500015
	C490.847778,170.348984 490.962921,152.196381 490.712555,134.048782
	C490.678101,131.550476 489.450745,128.476608 487.721313,126.689453
	C476.258606,114.844070 464.514709,103.270592 452.840027,91.630966
	C451.825989,90.619942 450.651184,89.770172 450.543640,89.679787
	C434.685211,105.521538 419.213745,120.976715 404.595062,135.580002
	C432.868500,163.917999 461.709717,192.825073 490.848053,222.029938
	C490.848053,211.310959 490.848053,200.405487 490.848206,188.500015
M425.459290,442.040710
	C439.119690,455.707764 453.103241,469.072906 466.289337,483.183197
	C471.955048,489.246063 477.833832,491.701050 485.919800,491.010986
	C489.971680,490.665161 490.934174,489.373871 490.903259,485.643402
	C490.762512,468.653534 489.754791,451.571136 491.161163,434.697235
	C492.467651,419.021332 488.080780,407.455841 475.760498,397.580048
	C466.348907,390.035889 458.469391,380.580444 450.488068,372.557892
	C434.605682,388.427063 419.108368,403.911469 403.162903,419.843689
	C410.140137,426.789154 417.549683,434.164948 425.459290,442.040710
M23.161930,92.462036
	C23.161930,96.340965 23.161930,100.219894 23.161930,103.220741
	C49.876675,76.525047 76.614548,49.806236 102.820862,23.618610
	C77.058273,23.618610 50.244225,23.618610 23.161932,23.618610
	C23.161932,46.540882 23.161932,69.007469 23.161930,92.462036
M23.156429,208.499908
	C23.156429,226.166260 23.156429,243.832611 23.156429,261.606506
	C39.377804,245.413742 55.109085,229.710205 70.014030,214.831543
	C54.579685,199.281281 38.871201,183.454834 23.156431,167.622055
	C23.156431,180.648315 23.156431,194.074112 23.156429,208.499908
M39.338509,465.161713
	C34.276592,460.102509 29.214676,455.043335 23.488579,449.320312
	C23.488579,463.933594 23.488579,477.142517 23.488579,490.578735
	C37.024204,490.578735 50.215282,490.578735 64.683685,490.578735
	C55.892368,481.762024 47.865421,473.711853 39.338509,465.161713
M490.856293,93.842491
	C490.856293,78.764191 490.856293,63.685883 490.856293,49.081100
	C482.672668,57.191433 474.532471,65.258759 466.131104,73.584892
	C473.216553,80.642799 480.751129,88.152977 488.292664,95.656151
	C489.841980,97.197563 490.845093,97.218346 490.856293,93.842491
M490.843445,376.732422
	C490.843445,361.756409 490.843445,346.780365 490.843445,332.180389
	C482.500824,340.539246 474.452332,348.603363 467.365540,355.703949
	C474.970825,363.294281 482.996857,371.304504 490.740540,379.032928
	C490.735168,379.112061 490.788788,378.322113 490.843445,376.732422
z"/>
<path fill="#84634D" opacity="1.000000" stroke="none"
	d="
M373.644348,138.355682
	C398.958435,163.664856 424.022614,188.723923 448.632385,213.328674
	C432.737946,229.248917 417.274384,244.737595 402.219208,259.817230
	C360.983521,218.577789 319.337341,176.927811 277.929901,135.516602
	C293.032654,120.564819 308.582458,105.170486 324.621277,89.292015
	C340.485229,105.169121 356.939819,121.637360 373.644348,138.355682
z"/>
<path fill="#D0AB91" opacity="1.000000" stroke="none"
	d="
M158.940933,144.057190
	C155.983459,141.347336 153.276199,138.887634 151.069366,136.882599
	C167.183823,120.766228 182.762497,105.185692 197.933624,90.012756
	C239.091385,131.146652 280.884094,172.915131 322.441742,214.448685
	C307.232391,229.654053 291.707550,245.174850 275.917175,260.961090
	C237.178101,222.246017 198.184631,183.276688 158.940933,144.057190
z"/>
<path fill="#AF483E" opacity="1.000000" stroke="none"
	d="
M144.198029,160.802002
	C161.983795,178.597717 179.519592,196.143402 196.465851,213.099228
	C180.745224,228.877121 165.294739,244.383881 150.340973,259.392120
	C109.378540,218.440048 67.618896,176.690979 26.184023,135.266571
	C41.002048,120.443459 56.406170,105.034050 72.428284,89.006432
	C96.005524,112.592155 119.976791,136.572067 144.198029,160.802002
z"/>
<path fill="#D1AC92" opacity="1.000000" stroke="none"
	d="
M238.424698,299.424927
	C203.785812,334.027588 169.396912,368.380219 135.358978,402.382263
	C119.736771,386.774445 104.242958,371.294891 89.292244,356.357971
	C130.559128,315.089447 172.394241,273.252686 213.964828,231.680450
	C228.595306,246.313812 244.091782,261.813354 260.159424,277.884155
	C253.231293,284.749725 245.952988,291.962311 238.424698,299.424927
z"/>
<path fill="#B0483E" opacity="1.000000" stroke="none"
	d="
M313.385803,350.385986
	C295.720520,368.062775 278.305450,385.489716 261.146576,402.660339
	C245.337662,386.876007 229.910019,371.472321 215.051346,356.636749
	C256.564789,315.105469 298.303711,273.348663 339.610870,232.023758
	C354.316528,246.723480 369.710968,262.111725 385.689545,278.083862
	C362.068665,301.704346 337.852325,325.920288 313.385803,350.385986
z"/>
<path fill="#D1AC92" opacity="1.000000" stroke="none"
	d="
M490.830505,291.818848
	C491.629730,296.999725 489.616364,300.273956 486.274750,303.590698
	C454.239075,335.387878 422.366028,367.348969 390.472870,399.289520
	C389.301971,400.462158 388.403015,401.906342 387.700409,402.808929
	C371.552917,386.695740 355.958313,371.134247 340.665375,355.873749
	C382.080170,314.436981 423.833374,272.661621 465.941315,230.531342
	C473.618958,238.252380 481.648804,246.184265 489.446564,254.338150
	C490.503754,255.443634 490.753571,257.657837 490.772003,259.365204
	C490.887207,270.024170 490.830353,280.684967 490.830505,291.818848
z"/>
<path fill="#AF483E" opacity="1.000000" stroke="none"
	d="
M111.547844,411.452179
	C137.745834,437.657532 163.694168,463.612579 190.575760,490.501160
	C187.451508,490.672028 185.855743,490.834503 184.259903,490.835388
	C156.604752,490.850739 128.949127,490.916504 101.295250,490.727997
	C98.763596,490.710693 95.554375,489.737213 93.822021,488.029022
	C71.520897,466.038879 49.428917,443.836578 27.297274,421.674713
	C26.497511,420.873901 25.834232,419.936768 25.484201,419.516083
	C41.186031,403.783569 56.658150,388.281189 72.516083,372.392273
	C85.204170,385.089355 98.251175,398.145630 111.547844,411.452179
z"/>
<path fill="#85644D" opacity="1.000000" stroke="none"
	d="
M397.000000,490.851501
	C381.848297,490.850250 367.195068,490.953613 352.546570,490.737366
	C350.305298,490.704315 347.487122,489.801147 345.946289,488.278137
	C323.448395,466.039886 301.121002,443.629181 278.763306,421.249268
	C278.185883,420.671234 277.724609,419.977203 277.759766,420.020844
	C293.381165,404.398132 308.846649,388.931366 323.843323,373.933441
	C362.018616,412.121155 401.145325,451.260590 440.723511,490.851654
	C426.452576,490.851654 411.976288,490.851654 397.000000,490.851501
z"/>
<path fill="#D0AB92" opacity="1.000000" stroke="none"
	d="
M212.264297,480.735901
	C191.640671,460.125275 171.267059,439.764679 151.320084,419.830444
	C167.126297,404.025360 182.716278,388.436462 197.610504,373.543304
	C236.273804,412.161163 275.563171,451.404358 315.036713,490.831512
	C313.529816,490.831512 311.777802,490.831512 310.025787,490.831512
	C283.537292,490.831512 257.046295,490.638092 230.562149,490.978455
	C224.541534,491.055817 219.939774,489.760559 216.367828,484.898315
	C215.295364,483.438416 213.810318,482.281616 212.264297,480.735901
z"/>
<path fill="#85644D" opacity="1.000000" stroke="none"
	d="
M26.023251,385.816650
	C24.937912,385.963379 23.420284,386.028656 23.361752,385.767242
	C23.076416,384.492889 23.152126,383.131287 23.151859,381.800537
	C23.146355,354.491333 23.197739,327.181976 23.089813,299.873199
	C23.075068,296.141663 24.009127,293.342468 26.766376,290.619995
	C45.724674,271.900787 64.575478,253.070953 83.287315,234.105499
	C86.418533,230.931839 88.307518,230.585541 91.607140,233.981659
	C104.486015,247.237167 117.674065,260.192200 130.731903,273.274170
	C131.882553,274.426941 132.922440,275.690277 134.412170,277.344727
	C98.211441,313.576019 62.237480,349.580322 26.023251,385.816650
z"/>
<path fill="#CFAA91" opacity="1.000000" stroke="none"
	d="
M477.692505,28.737242
	C447.296814,59.138245 417.149780,89.294937 387.399841,119.054428
	C371.576508,103.214424 355.992920,87.614410 339.994049,71.598679
	C352.507050,59.193943 366.021820,46.762234 378.325348,33.229271
	C385.471161,25.369358 392.927124,22.574165 403.439270,22.912781
	C427.908539,23.700985 452.420502,23.164051 476.915161,23.164053
	C478.524963,23.164053 480.134766,23.164053 483.107361,23.164053
	C480.812256,25.531429 479.376709,27.012180 477.692505,28.737242
z"/>
<path fill="#AF483E" opacity="1.000000" stroke="none"
	d="
M321.236023,59.236050
	C300.993286,79.484673 281.000519,99.483315 261.398773,119.090851
	C245.528809,103.245155 230.125458,87.865356 214.379807,72.143768
	C214.872177,71.556847 215.718079,70.382088 216.727432,69.370407
	C231.083054,54.981823 245.408936,40.562527 259.906281,26.317858
	C261.511841,24.740273 264.120880,23.310501 266.274475,23.296055
	C295.428192,23.100491 324.583649,23.165842 353.738678,23.182192
	C354.361847,23.182541 354.984924,23.366488 356.816101,23.655363
	C344.631958,35.839729 333.058990,47.412895 321.236023,59.236050
z"/>
<path fill="#84634D" opacity="1.000000" stroke="none"
	d="
M95.406708,80.593292
	C92.334305,78.289429 89.511574,76.235535 86.688843,74.181633
	C86.922485,73.325645 87.156136,72.469658 87.389778,71.613670
	C91.336594,68.062340 95.429344,64.658783 99.203033,60.932133
	C110.809029,49.470833 122.218712,37.809647 133.905869,26.432802
	C135.619995,24.764189 138.421021,23.309200 140.730453,23.292233
	C169.524048,23.080679 198.319748,23.151308 227.114899,23.163002
	C227.919846,23.163328 228.724716,23.313766 230.380325,23.479223
	C229.124573,25.014734 228.342407,26.157217 227.380585,27.120253
	C197.740143,56.798122 168.044937,86.421501 138.485153,116.179390
	C135.575974,119.108070 133.817688,119.198532 130.904953,116.211906
	C119.284393,104.296585 107.426453,92.612770 95.406708,80.593292
z"/>
<path fill="#AE473E" opacity="1.000000" stroke="none"
	d="
M490.848145,189.000031
	C490.848053,200.405487 490.848053,211.310959 490.848053,222.029938
	C461.709717,192.825073 432.868500,163.917999 404.595062,135.580002
	C419.213745,120.976715 434.685211,105.521538 450.543640,89.679787
	C450.651184,89.770172 451.825989,90.619942 452.840027,91.630966
	C464.514709,103.270592 476.258606,114.844070 487.721313,126.689453
	C489.450745,128.476608 490.678101,131.550476 490.712555,134.048782
	C490.962921,152.196381 490.847778,170.348984 490.848145,189.000031
z"/>
<path fill="#AF483E" opacity="1.000000" stroke="none"
	d="
M425.209259,441.790741
	C417.549683,434.164948 410.140137,426.789154 403.162903,419.843689
	C419.108368,403.911469 434.605682,388.427063 450.488068,372.557892
	C458.469391,380.580444 466.348907,390.035889 475.760498,397.580048
	C488.080780,407.455841 492.467651,419.021332 491.161163,434.697235
	C489.754791,451.571136 490.762512,468.653534 490.903259,485.643402
	C490.934174,489.373871 489.971680,490.665161 485.919800,491.010986
	C477.833832,491.701050 471.955048,489.246063 466.289337,483.183197
	C453.103241,469.072906 439.119690,455.707764 425.209259,441.790741
z"/>
<path fill="#CFAA90" opacity="1.000000" stroke="none"
	d="
M23.161930,91.968048
	C23.161932,69.007469 23.161932,46.540882 23.161932,23.618610
	C50.244225,23.618610 77.058273,23.618610 102.820862,23.618610
	C76.614548,49.806236 49.876675,76.525047 23.161930,103.220741
	C23.161930,100.219894 23.161930,96.340965 23.161930,91.968048
z"/>
<path fill="#CDA98F" opacity="1.000000" stroke="none"
	d="
M23.156429,207.999908
	C23.156431,194.074112 23.156431,180.648315 23.156431,167.622055
	C38.871201,183.454834 54.579685,199.281281 70.014030,214.831543
	C55.109085,229.710205 39.377804,245.413742 23.156429,261.606506
	C23.156429,243.832611 23.156429,226.166260 23.156429,207.999908
z"/>
<path fill="#CAA68D" opacity="1.000000" stroke="none"
	d="
M39.588493,465.411713
	C47.865421,473.711853 55.892368,481.762024 64.683685,490.578735
	C50.215282,490.578735 37.024204,490.578735 23.488579,490.578735
	C23.488579,477.142517 23.488579,463.933594 23.488579,449.320312
	C29.214676,455.043335 34.276592,460.102509 39.588493,465.411713
z"/>
<path fill="#CAA68D" opacity="1.000000" stroke="none"
	d="
M490.853882,94.260262
	C490.845093,97.218346 489.841980,97.197563 488.292664,95.656151
	C480.751129,88.152977 473.216553,80.642799 466.131104,73.584892
	C474.532471,65.258759 482.672668,57.191433 490.856293,49.081100
	C490.856293,63.685883 490.856293,78.764191 490.853882,94.260262
z"/>
<path fill="#CDA98F" opacity="1.000000" stroke="none"
	d="
M490.842926,377.132294
	C490.788788,378.322113 490.735168,379.112061 490.740540,379.032928
	C482.996857,371.304504 474.970825,363.294281 467.365540,355.703949
	C474.452332,348.603363 482.500824,340.539246 490.843445,332.180389
	C490.843445,346.780365 490.843445,361.756409 490.842926,377.132294
z"/>
</svg>
